<svg version="1.1" xmlns="http://www.w3.org/2000/svg" xmlns:xlink="http://www.w3.org/1999/xlink" x="0px" y="0px" viewBox="0 0 74.01 72.96" xml:space="preserve" style="enable-background:new 0 0 74.01 72.96;" width="74.01"  height="72.96" ><g id="people" transform="translate(367 -3836.923)"><g id="team" transform="translate(-1082.469 3793.191)"><path id="Tracé_162751" d="M767.8,68.84h7.2" class="st0" stroke="#FFFFFF" fill="none" stroke-width="3px"></path> <path id="Tracé_162752" d="M775,68.84h6.19c3.75,0,6.79,3.04,6.79,6.79v12.59c0,1.59-1.28,2.87-2.87,2.87
        c0,0,0,0,0,0l0,0c-1.59,0-2.87-1.28-2.87-2.87c0,0,0,0,0,0V75.28" class="st0" stroke="#FFFFFF" fill="none" stroke-width="3px"></path> <path id="Tracé_162753" d="M774.91,92.21v15.37c0,1.99-1.61,3.61-3.6,3.62c-0.01,0-0.01,0-0.02,0l0,0
        c-1.99,0-3.61-1.61-3.62-3.6c0-0.01,0-0.01,0-0.02V88.22h14.56v19.36c0,1.99-1.61,3.61-3.6,3.62c-0.01,0-0.01,0-0.02,0l0,0
        c-1.99,0-3.61-1.61-3.62-3.6c0-0.01,0-0.01,0-0.02V92.21" class="st0" stroke="#FFFFFF" fill="none" stroke-width="3px"></path> <path id="Tracé_162754" d="M774.91,70.76" class="st0" stroke="#FFFFFF" fill="none" stroke-width="3px"></path> <line id="Ligne_843-2" x1="774.91" y1="72.6" x2="774.91" y2="68.84" class="st0" stroke="#FFFFFF" fill="none" stroke-width="3px"></line> <path id="Tracé_162755" d="M773.28,64.5c3.2,0.89,6.52-0.99,7.41-4.19c0.29-1.05,0.29-2.17,0-3.22
        c-0.55-2.02-2.13-3.6-4.15-4.15c-3.2-0.89-6.52,0.99-7.41,4.19c-0.29,1.05-0.29,2.17,0,3.22
        C769.68,62.37,771.26,63.94,773.28,64.5z" class="st0" stroke="#FFFFFF" fill="none" stroke-width="3px"></path> <path id="Tracé_162756-2" d="M743.95,71.56v15.94c0,1.87-1.52,3.39-3.39,3.39l0,0c-1.87,0-3.39-1.52-3.39-3.39V71.98
        c0-4.43,3.59-8.01,8.01-8.01h7.29" class="st0" stroke="#FFFFFF" fill="none" stroke-width="3px"></path> <path id="Tracé_162757-2" d="M752.48,63.99h7.29c4.43,0,8.01,3.59,8.01,8.01v15.51c0,1.87-1.52,3.39-3.39,3.39l0,0
        c-1.87,0-3.39-1.52-3.39-3.39V71.57" class="st0" stroke="#FFFFFF" fill="none" stroke-width="3px"></path> <path id="Tracé_162758-2" d="M752.37,92.21v18.72c0,2.35-1.91,4.25-4.26,4.26l0,0c-2.35,0-4.25-1.91-4.26-4.26V87.51
        h17.14v23.42c0,2.35-1.91,4.25-4.26,4.26l0,0c-2.35,0-4.25-1.91-4.26-4.26V92.21" class="st0" stroke="#FFFFFF" fill="none" stroke-width="3px"></path> <path id="Tracé_162759-2" d="M752.37,66.25" class="st0" stroke="#FFFFFF" fill="none" stroke-width="3px"></path> <line id="Ligne_844-2" x1="752.37" y1="68.42" x2="752.37" y2="63.99" class="st0" stroke="#FFFFFF" fill="none" stroke-width="3px"></line> <path id="Tracé_162760-2" d="M750.46,59.11c3.77,1.05,7.68-1.16,8.72-4.94c0.34-1.24,0.34-2.55,0-3.79
        c-0.65-2.38-2.51-4.24-4.89-4.89c-3.77-1.05-7.67,1.16-8.72,4.92c-0.35,1.24-0.35,2.56,0,3.8
        C746.22,56.6,748.08,58.46,750.46,59.11z" class="st0" stroke="#FFFFFF" fill="none" stroke-width="3px"></path> <path id="Tracé_162761-2" d="M722.71,75.26V88.2c0,1.59-1.28,2.87-2.87,2.87c0,0,0,0,0,0l0,0
        c-1.59,0-2.87-1.29-2.87-2.87V75.62c0-3.75,3.04-6.79,6.79-6.79h6.19" class="st0" stroke="#FFFFFF" fill="none" stroke-width="3px"></path> <path id="Tracé_162762-2" d="M729.95,68.84h6.19c0.46,0,0.92,0.05,1.36,0.14" class="st0" stroke="#FFFFFF" fill="none" stroke-width="3px"></path> <path id="Tracé_162763-2" d="M729.87,92.21v15.37c0,1.99-1.61,3.61-3.6,3.62c-0.01,0-0.01,0-0.02,0l0,0
        c-1.99,0-3.61-1.61-3.62-3.6c0-0.01,0-0.01,0-0.02V88.22h14.56v19.36c0,1.99-1.61,3.61-3.6,3.62c-0.01,0-0.01,0-0.02,0l0,0
        c-1.99,0-3.61-1.61-3.62-3.6c0-0.01,0-0.01,0-0.02V92.21" class="st0" stroke="#FFFFFF" fill="none" stroke-width="3px"></path> <path id="Tracé_162764-2" d="M729.87,70.76" class="st0" stroke="#FFFFFF" fill="none" stroke-width="3px"></path> <line id="Ligne_845-2" x1="729.87" y1="72.6" x2="729.87" y2="68.84" class="st0" stroke="#FFFFFF" fill="none" stroke-width="3px"></line> <path id="Tracé_162765-2" d="M728.24,64.5c3.2,0.89,6.52-0.99,7.41-4.19c0.29-1.05,0.29-2.17,0-3.22
        c-0.55-2.02-2.13-3.6-4.15-4.15c-3.2-0.89-6.52,0.99-7.41,4.19c-0.29,1.05-0.29,2.17,0,3.22
        C724.64,62.37,726.22,63.95,728.24,64.5z" class="st0" stroke="#FFFFFF" fill="none" stroke-width="3px"></path></g></g></svg>