<svg version="1.1" xmlns="http://www.w3.org/2000/svg" xmlns:xlink="http://www.w3.org/1999/xlink" x="0px" y="0px" viewBox="0 0 30.5 30.9" xml:space="preserve" style="enable-background: new 0 0 30.5 30.9" width="30.5"  height="30.9" ><path d="M15.3,1c-3.8,0-7.2,3.3-7.2,7.2c0,5.5,5.4,6.8,7.2,12.8c1.8-6,7.2-7.3,7.2-12.8C22.5,4.3,19.1,1,15.3,1z" class="st0" stroke="#FFFFFF" fill="none" stroke-width="2px"></path> <path d="M15.3,5.8c-1.3,0-2.4,1.1-2.4,2.4c0,1.3,1.1,2.4,2.4,2.4c1.3,0,2.4-1.1,2.4-2.4C17.7,6.8,16.6,5.8,15.3,5.8z" class="st1" stroke="#FFFFFF" fill="none" stroke-width="2px"></path> <polyline points="11.7,17 6.4,18.9 1,29.7 8.1,27.2 15.1,29.9 22.6,27.4 29.5,29.7 24.4,18.8 19.7,17 " class="st0" stroke="#FFFFFF" fill="none" stroke-width="2px"></polyline> <line x1="22.2" y1="26.7" x2="19.1" y2="16.5" class="st0" stroke="#FFFFFF" fill="none" stroke-width="2px"></line> <line x1="8.3" y1="27" x2="11.4" y2="16.8" class="st0" stroke="#FFFFFF" fill="none" stroke-width="2px"></line> <line x1="15.1" y1="29.4" x2="15.1" y2="20.5" class="st0" stroke="#FFFFFF" fill="none" stroke-width="2px"></line></svg>